<svg width="64" height="64" viewBox="0 0 64 64" fill="none" xmlns="http://www.w3.org/2000/svg">
  <!-- Background circle -->
  <circle cx="32" cy="32" r="30" fill="#0071e3"/>

  <!-- Car silhouette -->
  <path d="M18 35 L22 28 L26 28 L28 25 L36 25 L38 28 L42 28 L46 35 L46 42 L44 42 L44 44 L42 44 L42 42 L22 42 L22 44 L20 44 L20 42 L18 42 Z" fill="white"/>

  <!-- Car windows -->
  <path d="M25 28 L27 26 L32 26 L32 28 Z" fill="#0071e3"/>
  <path d="M33 28 L33 26 L37 26 L39 28 Z" fill="#0071e3"/>

  <!-- Wheels -->
  <circle cx="24" cy="42" r="3" fill="#1a1a1a"/>
  <circle cx="24" cy="42" r="1.5" fill="white"/>
  <circle cx="40" cy="42" r="3" fill="#1a1a1a"/>
  <circle cx="40" cy="42" r="1.5" fill="white"/>

  <!-- Heart accent (small) -->
  <path d="M32 18 C32 18, 29 15, 27 17 C25 19, 25 21, 27 23 L32 28 L37 23 C39 21, 39 19, 37 17 C35 15, 32 18, 32 18 Z" fill="#ff4757" opacity="0.9"/>
  <path d="M32 18 C32 18, 29 15, 27 17 C25 19, 25 21, 27 23 L32 28 L37 23 C39 21, 39 19, 37 17 C35 15, 32 18, 32 18 Z" stroke="white" stroke-width="0.5" fill="none"/>
</svg>
